<?xml version="1.0" encoding="utf-8"?>
<!-- Generator: Adobe Illustrator 18.0.0, SVG Export Plug-In . SVG Version: 6.00 Build 0)  -->
<!DOCTYPE svg PUBLIC "-//W3C//DTD SVG 1.1//EN" "http://www.w3.org/Graphics/SVG/1.1/DTD/svg11.dtd">
<svg version="1.1" id="Layer_1" xmlns="http://www.w3.org/2000/svg" xmlns:xlink="http://www.w3.org/1999/xlink" x="0px" y="0px"
	 viewBox="100 75 400 400" enable-background="new 100 75 400 400" xml:space="preserve">
<circle id="Ellipse_5" fill="none" stroke="#FFFFFF" stroke-width="0.813" stroke-linecap="round" stroke-linejoin="round" stroke-dasharray="0,4.334" cx="299.5" cy="275.7" r="198.3"/>
<circle id="Ellipse_6" fill="none" stroke="#FFFFFF" stroke-width="0.949" stroke-linecap="round" stroke-linejoin="round" stroke-dasharray="0,4.221" cx="298" cy="276.2" r="183.8"/>
<circle id="Ellipse_7" fill="none" stroke="#FFFFFF" stroke-width="1.086" stroke-linecap="round" stroke-linejoin="round" stroke-dasharray="0,4.108" cx="298.5" cy="276.6" r="169.4"/>
<circle id="Ellipse_9" fill="none" stroke="#FFFFFF" stroke-width="1.359" stroke-linecap="round" stroke-linejoin="round" stroke-dasharray="0,3.881" cx="299.4" cy="275.6" r="140.5"/>
<circle id="Ellipse_8" fill="none" stroke="#FFFFFF" stroke-width="1.222" stroke-linecap="round" stroke-linejoin="round" stroke-dasharray="0,3.994" cx="298.9" cy="275.2" r="154.9"/>
<circle id="Ellipse_10" fill="none" stroke="#000000" stroke-width="1.496" stroke-linecap="round" stroke-linejoin="round" stroke-dasharray="0,3.767" cx="298" cy="276.1" r="126"/>
<circle id="Ellipse_13" fill="none" stroke="#000000" stroke-width="1.905" stroke-linecap="round" stroke-linejoin="round" stroke-dasharray="0,3.427" cx="298.2" cy="276.4" r="82.6"/>
<circle id="Ellipse_12" fill="none" stroke="#000000" stroke-width="1.769" stroke-linecap="round" stroke-linejoin="round" stroke-dasharray="0,3.541" cx="298.9" cy="275.1" r="97.1"/>
<circle id="Ellipse_11" fill="none" stroke="#000000" stroke-width="1.632" stroke-linecap="round" stroke-linejoin="round" stroke-dasharray="0,3.654" cx="298.4" cy="276.5" r="111.5"/>
<g transform="matrix(1, 0, 0, 1, 0, 0)">
	
		<image overflow="visible" opacity="0.15" width="474" height="474" xlink:href="AC031712.png"  transform="matrix(1 0 0 1 62 54.226)">
	</image>
	<g>
		<circle id="Ellipse_18-2_11_" fill="#FFFFFF" cx="299.1" cy="276.1" r="128.6"/>
	</g>
</g>
<path id="Path_24" fill="#67DCD1" d="M351.5,331.3c-14.4-44.3-9.1-77.6-9.1-77.6H342c-0.2-16.6-13.3-30-29.3-30
	c-4.2,0-8.4,1-12.2,2.8c-3.8-1.8-8-2.8-12.2-2.8c-16,0-28.9,13.4-29.3,30h-0.2c4.9,37.6-8.4,77.6-8.4,77.6h20.9
	c2.8-7.5,11.1-33.8,8.3-72.4c-0.1-0.9,0.6-1.6,1.5-1.7c0.9-0.1,1.6,0.6,1.7,1.5l0,0c2.8,37.3-4.9,63.6-8,72.7L351.5,331.3
	L351.5,331.3z M312.7,227.9c13.7,0,24.8,11.6,25,25.9h-20.2c-0.1-9.8-4.8-18.8-12.6-24.6C307.6,228.4,310.2,227.9,312.7,227.9
	L312.7,227.9z M313.5,253.8h-25.7c0.1-9.3,5-17.7,12.8-22.4C308.5,236.1,313.4,244.7,313.5,253.8L313.5,253.8z M263.3,253.8
	c0.2-14.3,11.3-25.9,25-25.9c2.6,0,5.3,0.5,7.7,1.2c-7.8,5.7-12.4,14.9-12.6,24.6L263.3,253.8z"/>
<g id="Group_36" transform="translate(30.36 33.224)">
	<g id="Group_28" transform="translate(4.951 0.318)">
		<g id="Group_27">
			<path id="Path_25" fill="#0779E4" d="M275.2,252.9l-8.6-5.1l3.4-5.8c2-3.5,5.8-3.7,8.4,0.7c0.4,0.6,1.6,2.6,1.6,2.6L275.2,252.9z
				"/>
		</g>
	</g>
	<g id="Group_30" transform="translate(19.19 9.486)">
		<g id="Group_29">
			<path id="Path_26" fill="#0779E4" d="M273.2,248.4l8.8-4.9l3.4,5.8c2,3.5,0.2,6.9-4.9,6.9c-0.7,0-3.1,0-3.1,0L273.2,248.4z"/>
		</g>
	</g>
	<g id="Group_31" transform="translate(10.679)">
		<path id="Path_27" fill="#0779E4" d="M275.1,251.9l10.2,0.5l4.6-8.3l-2.9,1.6l-2.3-4.2c-1.3-1.7-1.5-2.4-7.7-2.4h-7.5l0,0
			c1.7,0.4,3.1,1.5,4,2.9l4.5,8.3L275.1,251.9z"/>
	</g>
	<g id="Group_32" transform="translate(14.327 16.419)">
		<path id="Path_28" fill="#0779E4" d="M276.4,246.6l-5.3,8.6l4.8,8.2l0.1-3.3h4.8c2.2-0.2,2.9-0.1,6-5.5l3.8-6.5l0,0
			c-1.1,1.3-2.8,2-4.5,1.8h-9.4L276.4,246.6z"/>
	</g>
	<g id="Group_34" transform="translate(0 9.242)">
		<g id="Group_33">
			<path id="Path_29" fill="#0779E4" d="M278.9,252.3l-4.6-8.9l-9.5,0.1l2.8,1.8l-2.4,4c-2.3,4.2,1.3,7.3,5.3,7.3h1.8l3.7-6
				L278.9,252.3z"/>
		</g>
	</g>
	<g id="Group_35" transform="translate(0.455 17.223)">
		<path id="Path_30" fill="#0779E4" d="M282.6,249.2l-0.1,10.2H274c-1.8-0.1-3.4-1.1-4.2-2.7c-1.2-2.4-5.1-9.6-5.1-9.6
			c1.1,1.3,2.8,2.2,4.5,2.2C274.6,249.4,282.6,249.2,282.6,249.2z"/>
	</g>
</g>
</svg>
