<?xml version="1.0" encoding="utf-8"?>
<!-- Generator: Adobe Illustrator 18.0.0, SVG Export Plug-In . SVG Version: 6.00 Build 0)  -->
<!DOCTYPE svg PUBLIC "-//W3C//DTD SVG 1.1//EN" "http://www.w3.org/Graphics/SVG/1.1/DTD/svg11.dtd">
<svg version="1.1" id="Layer_1" xmlns="http://www.w3.org/2000/svg" xmlns:xlink="http://www.w3.org/1999/xlink" x="0px" y="0px"
	 viewBox="0 0 600 550" enable-background="new 0 0 600 550" xml:space="preserve">
<g>
	
		<image overflow="visible" opacity="0.15" width="610" height="611" xlink:href="7B4D2620.png"  transform="matrix(1 0 0 1 -1 -20)">
	</image>
	<g>
		<g>
			<circle id="Ellipse_18-2_13_" fill="#FFFFFF" cx="304.1" cy="270.5" r="196.8"/>
		</g>
	</g>
</g>
<path id="Path_24" fill="#67DCD1" d="M390.5,361.9c-25.2-77.4-15.9-135.6-15.9-135.6h-0.7c-0.3-29-23.2-52.4-51.2-52.4
	c-7.3,0-14.7,1.7-21.3,4.9c-6.6-3.1-14-4.9-21.3-4.9c-28,0-50.5,23.4-51.2,52.4h-0.3c8.6,65.7-14.7,135.6-14.7,135.6h36.5
	c4.9-13.1,19.4-59.1,14.5-126.6c-0.2-1.6,1-2.8,2.6-3c1.6-0.2,2.8,1,3,2.6l0,0c4.9,65.2-8.6,111.2-14,127.1L390.5,361.9L390.5,361.9
	z M322.7,181.2c23.9,0,43.4,20.3,43.7,45.3h-35.3c-0.2-17.1-8.4-32.9-22-43C313.8,182,318.3,181.2,322.7,181.2L322.7,181.2z
	 M324.1,226.4h-44.9c0.2-16.3,8.7-30.9,22.4-39.2C315.3,195.5,323.9,210.5,324.1,226.4L324.1,226.4z M236.3,226.4
	c0.3-25,19.8-45.3,43.7-45.3c4.5,0,9.3,0.9,13.5,2.1c-13.6,10-21.7,26-22,43L236.3,226.4z"/>
<g id="Group_36" transform="translate(30.36 33.224)">
	<g id="Group_28" transform="translate(4.951 0.318)">
		<g id="Group_27">
			<path id="Path_25" fill="#0779E4" d="M283.5,250l-15-8.9l5.9-10.1c3.5-6.1,10.1-6.5,14.7,1.2c0.7,1,2.8,4.5,2.8,4.5L283.5,250z"
				/>
		</g>
	</g>
	<g id="Group_30" transform="translate(19.19 9.486)">
		<g id="Group_29">
			<path id="Path_26" fill="#0779E4" d="M290.7,249l15.4-8.6l5.9,10.1c3.5,6.1,0.3,12.1-8.6,12.1c-1.2,0-5.4,0-5.4,0L290.7,249z"/>
		</g>
	</g>
	<g id="Group_31" transform="translate(10.679)">
		<path id="Path_27" fill="#0779E4" d="M287.6,248l17.8,0.9l8-14.5l-5.1,2.8l-4-7.3c-2.3-3-2.6-4.2-13.5-4.2h-13.1l0,0
			c3,0.7,5.4,2.6,7,5.1l7.9,14.5L287.6,248z"/>
	</g>
	<g id="Group_32" transform="translate(14.327 16.419)">
		<path id="Path_28" fill="#0779E4" d="M292.6,251l-9.3,15l8.4,14.3l0.2-5.8h8.4c3.8-0.3,5.1-0.2,10.5-9.6l6.6-11.4l0,0
			c-1.9,2.3-4.9,3.5-7.9,3.1h-16.4L292.6,251z"/>
	</g>
	<g id="Group_34" transform="translate(0 9.242)">
		<g id="Group_33">
			<path id="Path_29" fill="#0779E4" d="M286.3,255.6l-8-15.6l-16.6,0.2l4.9,3.1l-4.2,7c-4,7.3,2.3,12.8,9.3,12.8h3.1l6.5-10.5
				L286.3,255.6z"/>
		</g>
	</g>
	<g id="Group_35" transform="translate(0.455 17.223)">
		<path id="Path_30" fill="#0779E4" d="M293.1,256.1l-0.2,17.8h-14.9c-3.1-0.2-5.9-1.9-7.3-4.7c-2.1-4.2-8.9-16.8-8.9-16.8
			c1.9,2.3,4.9,3.8,7.9,3.8C279.1,256.5,293.1,256.1,293.1,256.1z"/>
	</g>
</g>
</svg>
