<?xml version="1.0" encoding="utf-8"?>
<!-- Generator: Adobe Illustrator 18.0.0, SVG Export Plug-In . SVG Version: 6.00 Build 0)  -->
<!DOCTYPE svg PUBLIC "-//W3C//DTD SVG 1.1//EN" "http://www.w3.org/Graphics/SVG/1.1/DTD/svg11.dtd">
<svg version="1.1" id="Capa_1" xmlns="http://www.w3.org/2000/svg" xmlns:xlink="http://www.w3.org/1999/xlink" x="0px" y="0px"
	 viewBox="245 245 22 22" enable-background="new 245 245 22 22" xml:space="preserve">
<g>
	<path fill="#FBBD00" d="M250.2,256c0-1.1,0.3-2.1,0.8-3v-3.7h-3.7c-1.5,1.9-2.3,4.2-2.3,6.7s0.8,4.8,2.3,6.7h3.7V259
		C250.5,258.1,250.2,257.1,250.2,256z"/>
	<path fill="#0F9D58" d="M256,261.8l-2.6,2.6l2.6,2.6c2.5,0,4.8-0.8,6.7-2.3V261H259C258.1,261.5,257.1,261.8,256,261.8z"/>
	<path fill="#31AA52" d="M251,259l-3.7,3.7c0.3,0.4,0.6,0.7,1,1.1c2.1,2.1,4.8,3.2,7.8,3.2v-5.2C253.9,261.8,252,260.7,251,259
		L251,259z"/>
	<path fill="#3C79E6" d="M267,256c0-0.7-0.1-1.3-0.2-2l-0.1-0.5H256v5.2h5.2c-0.5,1-1.3,1.8-2.2,2.4l3.7,3.7c0.4-0.3,0.7-0.6,1.1-1
		C265.9,261.7,267,258.9,267,256z"/>
	<path fill="#CF2D48" d="M260.1,251.9l0.5,0.5l3.6-3.6l-0.5-0.5c-2.1-2.1-4.8-3.2-7.8-3.2l-2.6,2.6l2.6,2.6
		C257.6,250.2,259,250.8,260.1,251.9z"/>
	<path fill="#EB4132" d="M256,250.2V245c-2.9,0-5.7,1.1-7.8,3.2c-0.3,0.3-0.7,0.7-1,1.1l3.7,3.7C252,251.3,253.9,250.2,256,250.2z"
		/>
</g>
</svg>
