<svg id="Group_37" data-name="Group 37" xmlns="http://www.w3.org/2000/svg" width="54.988" height="58.62" viewBox="0 0 54.988 58.62">
  <path id="Path_24" data-name="Path 24" d="M292.6,319.56c-7.855-24.159-4.891-42.242-4.891-42.242H287.5c-.155-9.058-7.243-16.378-15.939-16.378a15.266,15.266,0,0,0-6.641,1.521,15.268,15.268,0,0,0-6.641-1.521c-8.7,0-15.785,7.32-15.939,16.378h-.137c2.668,20.454-4.595,42.242-4.595,42.242h11.354c1.5-4.073,6.058-18.449,4.507-39.426a.84.84,0,0,1,1.676-.124c1.505,20.36-2.671,34.653-4.4,39.55Zm-21.035-56.328c7.434,0,13.5,6.292,13.648,14.086H274.224a16.885,16.885,0,0,0-6.851-13.39A12.969,12.969,0,0,1,271.564,263.232Zm.368,14.086H257.914a14.518,14.518,0,0,1,7.01-12.264A14.518,14.518,0,0,1,271.932,277.319Zm-27.3,0c.153-7.794,6.214-14.086,13.648-14.086a12.969,12.969,0,0,1,4.191.7,16.885,16.885,0,0,0-6.851,13.39Z" transform="translate(-237.611 -260.941)" fill="#67dcd1"/>
  <g id="Group_36" data-name="Group 36" transform="translate(24.163 26.443)">
    <g id="Group_28" data-name="Group 28" transform="translate(3.94 0.253)">
      <g id="Group_27" data-name="Group 27">
        <path id="Path_25" data-name="Path 25" d="M320.956,343.119l-4.662-2.8,1.84-3.224c1.135-1.9,3.213-1.986,4.606.386.2.343.833,1.4.833,1.4Z" transform="translate(-316.294 -335.684)" fill="#0779e4"/>
      </g>
    </g>
    <g id="Group_30" data-name="Group 30" transform="translate(15.273 7.55)">
      <g id="Group_29" data-name="Group 29">
        <path id="Path_26" data-name="Path 26" d="M348.024,358.75l4.756-2.637,1.872,3.206c1.077,1.932.114,3.775-2.637,3.8-.4,0-1.632.02-1.632.02Z" transform="translate(-348.024 -356.113)" fill="#0779e4"/>
      </g>
    </g>
    <g id="Group_31" data-name="Group 31" transform="translate(8.499)">
      <path id="Path_27" data-name="Path 27" d="M332.157,341.961l5.5.234,2.54-4.495-1.605.851-1.258-2.244c-.707-.948-.826-1.332-4.2-1.332h-4.069l.025.014a3.1,3.1,0,0,1,2.189,1.618l2.466,4.516Z" transform="translate(-329.058 -334.975)" fill="#0779e4"/>
    </g>
    <g id="Group_32" data-name="Group 32" transform="translate(11.402 13.068)">
      <path id="Path_28" data-name="Path 28" d="M340.137,371.561l-2.951,4.644,2.623,4.447.066-1.816,2.572.032c1.174-.137,1.567-.049,3.256-2.975l2.034-3.523-.025.015a2.875,2.875,0,0,1-2.442,1.006h-5.144Z" transform="translate(-337.186 -371.561)" fill="#0779e4"/>
    </g>
    <g id="Group_34" data-name="Group 34" transform="translate(0 7.356)">
      <g id="Group_33" data-name="Group 33">
        <path id="Path_29" data-name="Path 29" d="M313.143,360.446l-2.546-4.877-5.163.048,1.54.965-1.314,2.211c-1.272,2.3.724,3.992,2.952,3.992h1l2.016-3.289Z" transform="translate(-305.262 -355.569)" fill="#0779e4"/>
      </g>
    </g>
    <g id="Group_35" data-name="Group 35" transform="translate(0.362 13.708)">
      <path id="Path_30" data-name="Path 30" d="M316.013,374.544l-.054,5.567h-4.568a2.749,2.749,0,0,1-2.333-1.487c-.654-1.314-2.783-5.27-2.783-5.27a3.143,3.143,0,0,0,2.481,1.19C311.707,374.615,316.013,374.544,316.013,374.544Z" transform="translate(-306.276 -373.354)" fill="#0779e4"/>
    </g>
  </g>
</svg>
